<svg width="408" height="99" viewBox="0 0 408 99" fill="none" xmlns="http://www.w3.org/2000/svg">
<path d="M6.16138 4.53944C6.97837 7.59056 7.95385 9.67931 9.27271 11.3656C10.4889 12.9206 12.0353 14.1786 14.1301 15.5385C20.2246 9.84962 28.3985 6.35496 37.3518 6.35487H49.5042C58.4584 6.35497 66.6305 9.84992 72.7249 15.5385C74.8219 14.1788 76.3702 12.9217 77.5872 11.3666C78.9065 9.68054 79.8821 7.59148 80.6985 4.54042L81.1946 2.68788L82.2493 4.28944C86.6963 11.0424 85.7109 20.2498 80.675 26.681C82.5553 30.9048 83.6047 35.5726 83.6047 40.476V45.1537C83.6047 54.5433 79.7678 63.0778 73.593 69.2562C68.2773 74.5757 61.2147 78.1615 53.3625 79.0551L37.8899 91.3168L36.4934 92.4232V79.2641C27.4493 79.0367 19.253 75.2448 13.2678 69.2562C7.09314 63.0778 3.2561 54.5433 3.2561 45.1537V40.476C3.25617 35.5728 4.30495 30.9037 6.18384 26.6801C1.14813 20.2499 0.165084 11.0411 4.6106 4.28847L5.66528 2.68593L6.16138 4.53944ZM38.2161 76.6322L48.9719 68.1107L49.2063 67.9242H49.5061C55.7555 67.9242 61.4447 65.362 65.5725 61.2309C69.7002 57.0996 72.261 51.4074 72.261 45.1537V40.476C72.2609 34.2237 69.7012 28.5308 65.5725 24.3998C61.4434 20.2685 55.7555 17.7064 49.5061 17.7064H37.3547C31.1067 17.7064 25.4183 20.2667 21.2893 24.3988L21.2883 24.3998C17.1597 28.5308 14.6 34.2225 14.5999 40.476V45.1537C14.5999 51.4063 17.1602 57.0983 21.2893 61.2309C25.4184 65.362 31.1067 67.9242 37.3547 67.9242H38.2161V76.6322Z" fill="url(#paint0_linear_1_55)" stroke="url(#paint1_linear_1_55)" stroke-width="1.72222"/>
<path d="M104.878 77.0102V7.82888H118.33V77.0102H104.878ZM125.487 77.0102V28.5833H138.939V77.0102H125.487ZM132.213 22.3378C129.779 22.3378 127.793 21.6331 126.256 20.2239C124.718 18.7506 123.95 16.957 123.95 14.8431C123.95 12.6652 124.718 10.8716 126.256 9.46233C127.793 8.05308 129.779 7.34846 132.213 7.34846C134.647 7.34846 136.633 8.05308 138.17 9.46233C139.708 10.8716 140.476 12.6652 140.476 14.8431C140.476 16.957 139.708 18.7506 138.17 20.2239C136.633 21.6331 134.647 22.3378 132.213 22.3378ZM146.082 77.0102V28.5833H157.901L158.862 36.4623C160.335 33.7719 162.417 31.594 165.107 29.9285C167.862 28.263 171.161 27.4303 175.004 27.4303C178.976 27.4303 182.339 28.295 185.093 30.0246C187.847 31.69 189.929 34.1242 191.339 37.327C192.812 40.5299 193.549 44.4694 193.549 49.1455V77.0102H180.193V50.3946C180.193 46.6793 179.392 43.8288 177.791 41.843C176.253 39.7932 173.787 38.7683 170.392 38.7683C168.342 38.7683 166.485 39.2808 164.819 40.3057C163.154 41.2665 161.84 42.6758 160.88 44.5334C159.983 46.327 159.534 48.537 159.534 51.1633V77.0102H146.082ZM243.137 28.9676L219.116 52.9889L243.137 77.0102H226.899L210.949 61.0601V77.0102H199.419V9.75059H210.949V44.8217L226.803 28.9676H243.137Z" fill="#1a1a1a"/>
<path d="M246.589 98.149V28.5833H258.119L259.561 35.3093C260.585 33.9 261.803 32.6189 263.212 31.4658C264.621 30.2488 266.287 29.2879 268.208 28.5833C270.194 27.8146 272.5 27.4303 275.126 27.4303C279.674 27.4303 283.678 28.5513 287.137 30.7932C290.596 33.0352 293.318 36.0779 295.304 39.9213C297.354 43.7007 298.379 48.0245 298.379 52.8928C298.379 57.7612 297.354 62.117 295.304 65.9604C293.254 69.7398 290.5 72.7184 287.041 74.8964C283.582 77.0743 279.642 78.1633 275.222 78.1633C271.635 78.1633 268.529 77.5227 265.902 76.2416C263.34 74.8964 261.226 73.0707 259.561 70.7647V98.149H246.589ZM272.148 66.8252C274.71 66.8252 276.952 66.2487 278.874 65.0957C280.859 63.9426 282.397 62.3092 283.486 60.1953C284.575 58.0815 285.119 55.6473 285.119 52.8928C285.119 50.1384 284.575 47.7042 283.486 45.5904C282.397 43.4124 280.859 41.747 278.874 40.5939C276.952 39.3769 274.71 38.7683 272.148 38.7683C269.649 38.7683 267.408 39.3769 265.422 40.5939C263.5 41.747 261.963 43.3804 260.81 45.4943C259.721 47.6082 259.176 50.0423 259.176 52.7968C259.176 55.5512 259.721 58.0174 260.81 60.1953C261.963 62.3092 263.5 63.9426 265.422 65.0957C267.408 66.2487 269.649 66.8252 272.148 66.8252ZM303.786 77.0102V28.5833H315.316L316.565 37.5192C317.718 35.4053 319.16 33.6117 320.889 32.1384C322.683 30.6651 324.701 29.5121 326.943 28.6794C329.249 27.8466 331.779 27.4303 334.533 27.4303V41.1705H330.113C328.192 41.1705 326.398 41.3947 324.733 41.843C323.131 42.2914 321.722 43.0281 320.505 44.053C319.288 45.0139 318.359 46.3591 317.718 48.0886C317.078 49.8181 316.758 51.9961 316.758 54.6224V77.0102H303.786ZM337.625 77.0102V28.5833H350.597V77.0102H337.625ZM344.159 21.9534C341.853 21.9534 339.931 21.2808 338.394 19.9356C336.921 18.5264 336.184 16.7648 336.184 14.6509C336.184 12.5371 336.921 10.8075 338.394 9.46233C339.931 8.05308 341.853 7.34846 344.159 7.34846C346.529 7.34846 348.451 8.05308 349.924 9.46233C351.462 10.8075 352.23 12.5371 352.23 14.6509C352.23 16.7648 351.462 18.5264 349.924 19.9356C348.451 21.2808 346.529 21.9534 344.159 21.9534ZM366.298 29.0637L378.693 63.8466L370.238 72.5903L352.558 28.9676H366.298V29.0637ZM392.626 28.9676H406.27L386.572 77.0102H375.427L379.366 65.9604L392.626 28.9676Z" fill="#FE015C"/>
<defs>
<linearGradient id="paint0_linear_1_55" x1="6.21024" y1="56.8523" x2="87.2412" y2="58.9118" gradientUnits="userSpaceOnUse">
<stop stop-color="#FE0043"/>
<stop offset="1" stop-color="#FD267D"/>
</linearGradient>
<linearGradient id="paint1_linear_1_55" x1="6.21024" y1="56.8523" x2="87.2412" y2="58.9118" gradientUnits="userSpaceOnUse">
<stop stop-color="#FE0043"/>
<stop offset="1" stop-color="#FD267D"/>
</linearGradient>
</defs>
</svg>