<svg width="86" height="95" viewBox="0 0 86 95" fill="none" xmlns="http://www.w3.org/2000/svg">
    <path d="M6.16138 4.53944C6.97837 7.59056 7.95385 9.67931 9.27271 11.3656C10.4889 12.9206 12.0353 14.1786 14.1301 15.5385C20.2246 9.84962 28.3985 6.35496 37.3518 6.35487H49.5042C58.4584 6.35497 66.6305 9.84992 72.7249 15.5385C74.8219 14.1788 76.3702 12.9217 77.5872 11.3666C78.9065 9.68054 79.8821 7.59148 80.6985 4.54042L81.1946 2.68788L82.2493 4.28944C86.6963 11.0424 85.7109 20.2498 80.675 26.681C82.5553 30.9048 83.6047 35.5726 83.6047 40.476V45.1537C83.6047 54.5433 79.7678 63.0778 73.593 69.2562C68.2773 74.5757 61.2147 78.1615 53.3625 79.0551L37.8899 91.3168L36.4934 92.4232V79.2641C27.4493 79.0367 19.253 75.2448 13.2678 69.2562C7.09314 63.0778 3.2561 54.5433 3.2561 45.1537V40.476C3.25617 35.5728 4.30495 30.9037 6.18384 26.6801C1.14813 20.2499 0.165084 11.0411 4.6106 4.28847L5.66528 2.68593L6.16138 4.53944ZM38.2161 76.6322L48.9719 68.1107L49.2063 67.9242H49.5061C55.7555 67.9242 61.4447 65.362 65.5725 61.2309C69.7002 57.0996 72.261 51.4074 72.261 45.1537V40.476C72.2609 34.2237 69.7012 28.5308 65.5725 24.3998C61.4434 20.2685 55.7555 17.7064 49.5061 17.7064H37.3547C31.1067 17.7064 25.4183 20.2667 21.2893 24.3988L21.2883 24.3998C17.1597 28.5308 14.6 34.2225 14.5999 40.476V45.1537C14.5999 51.4063 17.1602 57.0983 21.2893 61.2309C25.4184 65.362 31.1067 67.9242 37.3547 67.9242H38.2161V76.6322Z" fill="url(#paint0_linear_5010_24)" stroke="url(#paint1_linear_5010_24)" stroke-width="1.72222"/>
    <defs>
    <linearGradient id="paint0_linear_5010_24" x1="6.21024" y1="56.8523" x2="87.2412" y2="58.9118" gradientUnits="userSpaceOnUse">
    <stop stop-color="#FE0043"/>
    <stop offset="1" stop-color="#FD267D"/>
    </linearGradient>
    <linearGradient id="paint1_linear_5010_24" x1="6.21024" y1="56.8523" x2="87.2412" y2="58.9118" gradientUnits="userSpaceOnUse">
    <stop stop-color="#FE0043"/>
    <stop offset="1" stop-color="#FD267D"/>
    </linearGradient>
    </defs>
    </svg>
    