<svg width="970" height="1068" viewBox="0 0 970 1068" fill="none" xmlns="http://www.w3.org/2000/svg">
    <path
        d="M60.1641 45.46C69.4798 80.2504 80.5995 104.065 95.6377 123.293C109.504 141.023 127.119 155.391 151.001 170.896C220.496 106.015 313.712 66.167 415.814 66.167H554.373C656.491 66.1671 749.694 106.017 819.188 170.898C843.093 155.399 860.721 141.033 874.595 123.304C889.639 104.079 900.758 80.266 910.066 45.4766L915.721 24.3447L927.752 42.6143C978.453 119.606 967.233 224.581 909.829 297.911C931.27 346.075 943.204 399.316 943.204 455.229V508.564C943.204 615.63 899.454 712.943 829.045 783.393L829.046 783.394C768.429 844.052 687.896 884.964 598.354 895.149L421.941 1034.93L406.025 1047.54V897.503C302.899 894.911 209.446 851.678 141.2 783.394C70.7912 712.944 27.042 615.631 27.042 508.564V455.229C27.042 399.316 38.9744 346.062 60.4014 297.898C2.99662 224.58 -8.20613 119.59 42.4785 42.6006L54.5068 24.3311L60.1641 45.46ZM425.663 867.501L548.304 770.324L550.983 768.201H554.402C625.66 768.201 690.524 738.989 737.591 691.884C784.659 644.777 813.861 579.873 813.861 508.564V455.229C813.861 383.934 784.673 319.016 737.593 271.911C690.511 224.804 625.66 195.593 554.402 195.593H415.844C344.599 195.593 279.735 224.791 232.654 271.91L232.653 271.911C185.573 319.017 156.385 383.92 156.385 455.229V508.564C156.385 579.858 185.572 644.762 232.653 691.883L233.76 692.983C280.749 739.444 345.157 768.201 415.844 768.201H425.663V867.501Z"
        fill="url(#paint0_linear_5018_30)" stroke="url(#paint1_linear_5018_30)"
        stroke-width="19.6375" />
    <defs>
        <linearGradient id="paint0_linear_5018_30" x1="60.7217" y1="641.954" x2="984.671"
            y2="665.437" gradientUnits="userSpaceOnUse">
            <stop stop-color="#FE0043" />
            <stop offset="1" stop-color="#FD267D" />
        </linearGradient>
        <linearGradient id="paint1_linear_5018_30" x1="60.7217" y1="641.954" x2="984.671"
            y2="665.437" gradientUnits="userSpaceOnUse">
            <stop stop-color="#FE0043" />
            <stop offset="1" stop-color="#FD267D" />
        </linearGradient>
    </defs>
</svg>
    